<svg xmlns="http://www.w3.org/2000/svg" viewBox="0 0 800 800" width="800" height="800">
  <defs>
    <radialGradient id="gsll2" cx="50%" cy="45%" r="62%">
      <stop offset="0%" stop-color="#ec4899" stop-opacity="0.20" />
      <stop offset="100%" stop-color="#ec4899" stop-opacity="0" />
    </radialGradient>
  </defs>
  <rect width="800" height="800" fill="#101014" />
  <rect width="800" height="800" fill="url(#gsll2)" />
  
  <g stroke="#ec4899" stroke-width="7" stroke-linecap="round" fill="none" opacity="0.95">
    <path d="M400 470 L200 250" />
    <path d="M400 470 L400 225" />
    <path d="M400 470 L600 250" />
    <path d="M400 470 L145 400" />
    <path d="M400 470 L655 400" />
  </g>
  <g fill="#ec4899" opacity="0.55">
    <circle cx="200" cy="250" r="9" /><circle cx="400" cy="225" r="9" />
    <circle cx="600" cy="250" r="9" /><circle cx="145" cy="400" r="9" />
    <circle cx="655" cy="400" r="9" />
  </g>
  <rect x="330" y="452" width="140" height="76" rx="14" fill="#1b1b20" stroke="#ec4899" stroke-width="4" />
  <rect x="352" y="478" width="96" height="10" rx="5" fill="#ec4899" opacity="0.8" />
  <rect x="352" y="498" width="60" height="10" rx="5" fill="#ec4899" opacity="0.45" />

  <text x="400" y="640" text-anchor="middle" font-family="Segoe UI, Helvetica, Arial, sans-serif"
        font-size="34" font-weight="700" fill="#ffffff" opacity="0.92">SL-L2</text>
  <text x="400" y="682" text-anchor="middle" font-family="Segoe UI, Helvetica, Arial, sans-serif"
        font-size="22" letter-spacing="3" fill="#ec4899" opacity="0.9">RGB LASER 3W</text>
  <text x="400" y="730" text-anchor="middle" font-family="Segoe UI, Helvetica, Arial, sans-serif"
        font-size="19" letter-spacing="4" fill="#ffffff" opacity="0.35">STAGELUMEN</text>
</svg>
